<svg id="molecule_icon" viewBox="-600.0 -600.0 1200.0 1200.0" xmlns="http://www.w3.org/2000/svg" xmlns:xlink="http://www.w3.org/1999/xlink">
	<defs>
		<g id="N">
			<circle cx="0" cy="0" r="100.0" fill="#3050F8" stroke="#243cb9" stroke-width="10.0" />
			<path d="M70,-70 A90.0,90.0 0, 1, 1 -70,70 M-70,70 A120.0,120.0 0, 0,0 70, -70 Z" fill="#243cb9" stroke-width="0" />
		</g>
		<g id="H">
			<circle cx="0" cy="0" r="100.0" fill="#FFFFFF" stroke="#bfbfbf" stroke-width="10.0" />
			<path d="M70,-70 A90.0,90.0 0, 1, 1 -70,70 M-70,70 A120.0,120.0 0, 0,0 70, -70 Z" fill="#bfbfbf" stroke-width="0" />
		</g>
	</defs>
	<line stroke="#717171" stroke-linecap="round" stroke-width="45.0" x1="-1.9229626863835636e-14" y1="-0.0" x2="346.4101615137755" y2="-199.99999999999994" />
	<line stroke="#979797" stroke-linecap="round" stroke-width="25.0" x1="-1.9229626863835636e-14" y1="-0.0" x2="346.4101615137755" y2="-199.99999999999994" />
	<line stroke="#717171" stroke-linecap="round" stroke-width="45.0" x1="-1.9229626863835636e-14" y1="-0.0" x2="-346.4101615137754" y2="-200.0000000000001" />
	<line stroke="#979797" stroke-linecap="round" stroke-width="25.0" x1="-1.9229626863835636e-14" y1="-0.0" x2="-346.4101615137754" y2="-200.0000000000001" />
	<line stroke="#717171" stroke-linecap="round" stroke-width="45.0" x1="-1.9229626863835636e-14" y1="-0.0" x2="-6.073490870184315e-14" y2="400.0" />
	<line stroke="#979797" stroke-linecap="round" stroke-width="25.0" x1="-1.9229626863835636e-14" y1="-0.0" x2="-6.073490870184315e-14" y2="400.0" />
	<use href="#N" xlink:href="#N" transform="translate(-1.9229626863835636e-14 -0.0)" />
	<use href="#H" xlink:href="#H" transform="translate(346.4101615137755 -199.99999999999994)" />
	<use href="#H" xlink:href="#H" transform="translate(-346.4101615137754 -200.0000000000001)" />
	<use href="#H" xlink:href="#H" transform="translate(-6.073490870184315e-14 400.0)" />
</svg>